<svg xmlns:dc="http://purl.org/dc/elements/1.1/" xmlns:cc="http://creativecommons.org/ns#" xmlns:rdf="http://www.w3.org/1999/02/22-rdf-syntax-ns#" xmlns:svg="http://www.w3.org/2000/svg" xmlns="http://www.w3.org/2000/svg" viewBox="0 0 133.33333 133.33333" height="133.33333" width="133.33333" xml:space="preserve" id="svg2" version="1.1"><metadata id="metadata8"><rdf:RDF><cc:Work rdf:about=""><dc:format>image/svg+xml</dc:format><dc:type rdf:resource="http://purl.org/dc/dcmitype/StillImage"/></cc:Work></rdf:RDF></metadata><defs id="defs6"/><g transform="matrix(1.3333333,0,0,-1.3333333,0,133.33333)" id="g10"><g transform="translate(100,-100)" id="g16"><path id="path18" style="fill:#137752;fill-opacity:1;fill-rule:evenodd;stroke:none" d="m -50,100 c 27.614235,0 50,22.38576 50,50 0,27.61423 -22.385765,50 -50,50 -27.614235,0 -50,-22.38577 -50,-50 0,-27.61424 22.385765,-50 50,-50 z m -16.058594,76.1875 V 125 h 17.753906 c 5.4375,0 9.644532,1.3125 12.621094,3.9375 2.976563,2.625 4.464844,6.23437 4.464844,10.82812 0,3 -0.808594,5.57813 -2.425781,7.73438 -1.59375,2.17969 -3.773438,3.65625 -6.539063,4.42969 2.34375,1.00781 4.195313,2.42578 5.554688,4.2539 1.359375,1.85157 2.039062,3.97266 2.039062,6.36328 0,4.5 -1.40625,7.89844 -4.21875,10.19532 -2.789062,2.29687 -6.960937,3.44531 -12.515625,3.44531 z m 6.75,-45.66797 v 18.42188 h 11.25 c 6.703125,0 10.054688,-3.08204 10.054688,-9.2461 0,-2.85937 -0.914063,-5.10937 -2.742188,-6.75 -1.804687,-1.61718 -4.277344,-2.42578 -7.417968,-2.42578 z m 10.195313,23.83594 h -10.195313 v 16.27734 h 9.984375 c 3.351563,0 5.847657,-0.64453 7.488281,-1.93359 1.640626,-1.26563 2.460938,-3.30469 2.460938,-6.11719 0,-2.53125 -0.890625,-4.53516 -2.671875,-6.01172 -1.757813,-1.47656 -4.113281,-2.21484 -7.066406,-2.21484 z"/></g></g></svg>